<svg xmlns="http://www.w3.org/2000/svg" xmlns:xlink="http://www.w3.org/1999/xlink" height="800" width="1200" fill="#0078af" viewBox="-85.03935 -28.87575 737.0077 173.2545"><path d="M299.63 88.526l-3.518 6.533 5.276-.172 4.998.172 1.944-6.275c.462-1.333.925-2.665 1.388-3.969.463-1.303.925-2.564 1.388-3.767l1.574-3.868 4.998-.516c.786-.086 1.712-.13 2.776-.158 1.065-.014 2.268-.014 3.61-.014 1.357 0 2.592.014 3.702.057 1.126.029 2.083.072 2.87.115l5.182.516 1.389 3.953 3.054 7.823 1.944 6.103 8.145-.172 9.348.172-3.517-6.705c-5.646-11.174-11.385-23.896-17.216-38.165l-4.535-11.432-2.406-6.103-4.258.258-3.424-.258-2.314 6.103-4.813 11.604a894.91 894.91 0 01-9.04 20.271 648.422 648.422 0 01-8.546 17.894zm16.011-18.48l1.574-3.525 4.72-11.089 2.314-5.157 2.221 5.157 4.813 11.089 1.574 3.524-3.147.43a23.84 23.84 0 01-2.314.143c-.802.029-1.666.029-2.592.029-2.128 0-4.072-.086-5.83-.258zm54.053 21.23l-.37 4.298 7.219-.601c.88-.043 2.036-.072 3.501-.072 1.45-.014 3.21-.014 5.292-.014 3.47.043 6.448.071 8.947.086 2.483.014 4.473.043 5.954.086l6.942.515-.186-3.524.186-3.61-4.998.344a94.251 94.251 0 01-4.196.2c-1.605.043-3.44.058-5.523.058l-8.145.086V45.46c.047-1.547.093-3.037.155-4.44a96.77 96.77 0 01.216-3.983l.37-4.384-7.59.258-8.145-.258.556 4.384a81.13 81.13 0 01.216 3.767c.046 1.361.061 2.851.061 4.484v36.188a404.578 404.578 0 01-.154 5.287 86.026 86.026 0 01-.308 4.512zm35.448-55.442l-.277 3.525 6.201-.344 7.775-.344h3.887v3.868l-.093 17.02-.092 17.535-.37 11.948-.278 6.017 7.867-.172 7.867.172-.37-6.017-.277-11.948-.186-17.536V38.671h3.888l7.682.344 6.2.344-.184-3.525.185-3.61-7.59.258c-3.331.129-6.417.23-9.27.315a319.3 319.3 0 01-7.945.115c-2.314 0-4.905-.043-7.774-.115-2.87-.086-6.017-.186-9.441-.315l-7.682-.258zm116.62-2.922l-7.775-.258.278 4.9.185 6.962.185 10.659-.092 17.793-.093 8.853-.185 7.822-.277 5.416 8.144-.172 7.497.172-.462-5.502a51.95 51.95 0 01-.294-3.739c-.046-1.332-.077-2.75-.077-4.255v-8.595l.093-6.017 4.257 6.017 5.924 8.595c1.388 1.934 2.576 3.625 3.548 5.086.987 1.447 1.774 2.65 2.376 3.596l2.961 4.814 9.626-.172 9.348.172-3.98-4.9-6.849-9.283-10.366-14.011-5.646-8.166 3.517-3.868 9.256-9.542 7.312-7.306 5.646-5.33-6.572.259-6.201-.258-3.702 5.071c-.972 1.333-2.175 2.837-3.595 4.527a317.558 317.558 0 01-4.92 5.616l-6.202 7.135-5.83 6.017v-6.19l.37-10.228.092-6.963.37-4.985zM193.648 20.203l-9.03-.31.557 4.555a99.57 99.57 0 01.26 5.022c.056 1.932.075 4.124.075 6.557v40.516c-.056 2.95-.093 5.47-.112 7.524-.019 2.07-.056 3.71-.111 4.883l-.67 6.109 9.254-.207 9.587.207-.446-6.005c-.223-3.4-.334-7.541-.334-12.407l-.112-12.493v-4.349l3.01 4.349a206.84 206.84 0 014.571 6.781 192.467 192.467 0 013.568 5.712l7.469 12.407 3.567 6.005 10.145-.207 11.483.207-4.683-5.798c-2.62-3.503-5.37-7.386-8.268-11.63a464.833 464.833 0 01-9.011-13.788l-3.568-5.901c2.453-.57 4.571-1.157 6.318-1.778 1.746-.621 3.103-1.277 4.05-1.95a15.976 15.976 0 004.125-3.503c1.133-1.345 2.062-2.899 2.787-4.659a15.711 15.711 0 001.04-3.606c.205-1.225.298-2.502.298-3.83-.056-3.003-.669-5.678-1.858-8.025-1.17-2.364-2.936-4.452-5.277-6.246-1.95-1.45-4.292-2.554-7.042-3.313-2.768-.76-5.946-1.14-9.569-1.14l-10.48.208zm8.918 35.15v-28.42l4.237-.31c4.515 0 7.915 1.052 10.182 3.174 2.285 2.123 3.418 5.298 3.418 9.543-.037 2.122-.334 4.072-.892 5.867a14.069 14.069 0 01-2.564 4.883c-1.393 1.743-2.954 3.072-4.682 3.969-1.728.88-3.623 1.346-5.685 1.398zM90 104.396h19.97V97.45H90zm-47.231-28.28v4.906h9.63v-4.907zM60 104.395h-7.6v-9.12h-4.907V86.98H42.77v17.417h-6.75V67.588l-2.469-2.585v-9.316l26.45 17"/><path id="a" d="M64.678 54.428H77v3.806H61.384V43.22a6.017 6.017 0 113.294.032zm10.07 38.015V78.206l-13.01-14.473h-12.51V49.816l-14.42-16.042V22.416h6.236V0H33.55v6.753h-5.014v6.78h-3.74v-6.78h-4.325V0h-7.714v22.416h6.353v17.311l14.44 13.96v9.873h5.974v12.555h17.063v28.281h8.419V81.612z"/><use height="100%" width="100%" transform="matrix(-1 0 0 1 149.494 0)" xlink:href="#a"/><path id="b" d="M4.731 84.059L15.45 72.144h17.96v-4.556H12.544L0 81.532v17.252h4.731zm2.979 3.89l10.645-11.834H33.41v4.907H21.775L12.44 91.397v13H7.71zm14.89-2.372l-6.948 7.724v16.474h3.981V96.49l5.562-6.183h8.213v-4.73zm10.81 13.207H30.5l-1.938 2.155v14.564h-4.323V97.48l2.984-3.317h6.186z"/><use height="100%" width="100%" transform="matrix(-1 0 0 1 146.553 0)" xlink:href="#b"/><path id="c" d="M254.555 91.019l-.463 4.555 8.238-.601 11.847-.086 11.106.344 6.294.343-.185-4.04.185-4.126-6.664.43c-1.897.13-3.718.215-5.476.272-1.743.043-3.41.072-4.983.072l-5.368-.086V66.22l5.553-.086c1.99.057 3.841.115 5.57.172 1.742.072 3.362.129 4.89.172l5.83.43-.277-4.04.277-4.14-5.553.343a122.94 122.94 0 01-5.214.272 130.81 130.81 0 01-5.337.072l-5.739-.086V39.53l5.183.086 11.477.344 5.831.344-.185-4.212.185-3.954-5.553.43c-2.87.172-7.59.258-14.161.258-2.222 0-4.119-.015-5.708-.058a148.99 148.99 0 01-3.825-.114l-8.238-.516.463 4.642.278 7.822v9.742l.092 16.532-.092 11.447c0 1.69-.016 3.252-.062 4.713a89.066 89.066 0 01-.216 3.983z"/><use height="100%" width="100%" transform="translate(210.378)" xlink:href="#c"/></svg>