<?xml version="1.0" encoding="iso-8859-1"?>
<!-- Generator: Adobe Illustrator 16.0.0, SVG Export Plug-In . SVG Version: 6.00 Build 0)  -->
<!DOCTYPE svg PUBLIC "-//W3C//DTD SVG 1.1//EN" "http://www.w3.org/Graphics/SVG/1.1/DTD/svg11.dtd">
<svg version="1.1" id="Capa_1" xmlns="http://www.w3.org/2000/svg" xmlns:xlink="http://www.w3.org/1999/xlink" x="0px" y="0px"
	 width="487.262px" height="487.262px" viewBox="0 0 487.262 487.262" style="enable-background:new 0 0 487.262 487.262;"
	 xml:space="preserve">
<g>
	<g>
		<path d="M487.262,326.994V44.501H0v282.493h170.427v62.029h-52.396v53.737h239.147v-53.737h-40.356v-62.029H487.262z
			 M23.915,303.08V68.417h439.433V303.08H23.915z"/>
		<path d="M118.4,231.335v-99.869H94.882c-0.193,4.116-1.174,7.584-2.954,10.404c-1.77,2.82-4.029,5.068-6.814,6.744
			c-2.761,1.676-5.874,2.873-9.318,3.585c-3.445,0.718-6.983,1.027-10.626,0.934v20.674h23.383v57.539H118.4V231.335z"/>
		<path d="M271.948,132.08c0-9.675-1.354-17.75-4.099-24.253c-2.721-6.504-6.188-11.73-10.393-15.7
			c-4.204-3.97-8.793-6.813-13.767-8.547c-4.974-1.723-9.756-2.586-14.345-2.586c-4.496,0-9.231,0.864-14.205,2.586
			c-4.975,1.734-9.546,4.577-13.703,8.547c-4.163,3.97-7.608,9.208-10.334,15.7c-2.727,6.504-4.087,14.59-4.087,24.253
			c0,9.657,1.36,17.731,4.087,24.236c2.738,6.516,6.183,11.741,10.334,15.711c4.146,3.97,8.74,6.813,13.773,8.536
			c5.021,1.734,9.768,2.581,14.264,2.581s9.254-0.847,14.275-2.581c5.027-1.722,9.622-4.565,13.768-8.536
			c4.169-3.97,7.613-9.208,10.334-15.711C270.593,149.823,271.948,141.737,271.948,132.08z M244.337,141.118
			c-0.251,3.345-0.864,6.504-1.868,9.47c-1.004,2.966-2.534,5.477-4.589,7.532c-2.056,2.055-4.916,3.083-8.536,3.083
			c-3.649,0-6.458-1.028-8.466-3.083c-2.009-2.055-3.515-4.565-4.52-7.532c-1.01-2.966-1.605-6.148-1.798-9.54
			c-0.187-3.398-0.286-6.387-0.286-8.968c0-2.68,0.099-5.734,0.274-9.126c0.204-3.386,0.788-6.58,1.792-9.54
			c1.005-2.955,2.54-5.453,4.595-7.462c2.055-2.008,4.951-3.013,8.682-3.013c3.538,0,6.335,1.028,8.39,3.095
			c2.062,2.055,3.567,4.595,4.525,7.607c0.951,3.013,1.553,6.189,1.792,9.541c0.239,3.345,0.356,6.311,0.356,8.898
			C244.694,134.754,244.565,137.767,244.337,141.118z"/>
		<path d="M79.323,243.795c-1.454-1.378-3.048-2.371-4.771-2.966c-1.722-0.595-3.369-0.887-4.975-0.887
			c-1.553,0-3.205,0.292-4.91,0.887c-1.734,0.596-3.316,1.588-4.747,2.966c-1.448,1.377-2.645,3.193-3.59,5.441
			c-0.946,2.253-1.413,5.056-1.413,8.407c0,3.352,0.467,6.154,1.413,8.396c0.945,2.254,2.143,4.076,3.59,5.441
			c1.43,1.379,3.036,2.359,4.77,2.967c1.746,0.607,3.381,0.887,4.951,0.887c1.553,0,3.2-0.279,4.934-0.887
			c1.746-0.607,3.34-1.588,4.776-2.967c1.441-1.365,2.639-3.187,3.584-5.441c0.946-2.242,1.413-5.044,1.413-8.396
			c0-3.351-0.467-6.154-1.413-8.407C81.991,246.988,80.782,245.172,79.323,243.795z M74.768,260.773
			c-0.081,1.179-0.286,2.253-0.642,3.281c-0.362,1.027-0.876,1.892-1.594,2.615c-0.718,0.724-1.71,1.063-2.966,1.063
			c-1.255,0-2.224-0.339-2.925-1.063c-0.706-0.724-1.22-1.588-1.57-2.615c-0.345-1.028-0.561-2.125-0.619-3.305
			c-0.076-1.18-0.111-2.207-0.111-3.106c0-0.934,0.035-1.985,0.111-3.164c0.059-1.18,0.263-2.277,0.619-3.305
			c0.362-1.028,0.875-1.892,1.594-2.581c0.712-0.712,1.723-1.057,3.013-1.057c1.232,0,2.201,0.356,2.901,1.08
			c0.707,0.712,1.244,1.588,1.571,2.639c0.321,1.039,0.537,2.148,0.618,3.293c0.082,1.167,0.135,2.195,0.135,3.094
			C74.903,258.566,74.85,259.617,74.768,260.773z"/>
		<path d="M222.823,251.467c1.448-1.378,2.645-3.188,3.59-5.436c0.946-2.248,1.413-5.056,1.413-8.407
			c0-3.346-0.467-6.16-1.413-8.402c-0.946-2.254-2.154-4.069-3.614-5.441c-1.454-1.378-3.048-2.371-4.771-2.966
			c-1.722-0.601-3.369-0.887-4.975-0.887c-1.553,0-3.205,0.286-4.91,0.887c-1.734,0.596-3.316,1.588-4.752,2.966
			c-1.442,1.372-2.64,3.188-3.585,5.441c-0.946,2.242-1.413,5.056-1.413,8.402c0,3.351,0.467,6.16,1.413,8.407
			c0.945,2.248,2.143,4.058,3.585,5.436c1.436,1.377,3.042,2.358,4.775,2.966c1.746,0.607,3.381,0.887,4.951,0.887
			c1.553,0,3.2-0.28,4.934-0.887C219.787,253.825,221.392,252.844,222.823,251.467z M216.009,246.644
			c-0.718,0.712-1.71,1.062-2.966,1.062s-2.236-0.35-2.931-1.062c-0.689-0.724-1.214-1.594-1.564-2.622
			c-0.345-1.028-0.561-2.131-0.619-3.299c-0.076-1.185-0.111-2.213-0.111-3.112c0-0.929,0.035-1.985,0.111-3.17
			c0.059-1.168,0.263-2.271,0.619-3.299c0.362-1.028,0.875-1.886,1.594-2.581c0.712-0.707,1.717-1.051,3.013-1.051
			c1.232,0,2.195,0.356,2.902,1.075c0.707,0.718,1.244,1.588,1.571,2.645c0.321,1.04,0.537,2.137,0.619,3.299
			c0.082,1.162,0.134,2.189,0.134,3.083c0,0.922-0.053,1.973-0.134,3.135c-0.082,1.167-0.286,2.248-0.642,3.275
			C217.241,245.05,216.727,245.938,216.009,246.644z"/>
		<path d="M136.108,257.352c-1.453-1.378-3.047-2.359-4.77-2.966c-1.723-0.595-3.369-0.887-4.975-0.887
			c-1.553,0-3.205,0.292-4.91,0.887c-1.734,0.607-3.316,1.588-4.753,2.966c-1.442,1.377-2.639,3.199-3.585,5.441
			c-0.945,2.242-1.413,5.068-1.413,8.408c0,3.352,0.467,6.165,1.413,8.407c0.946,2.242,2.143,4.063,3.585,5.441
			c1.437,1.378,3.042,2.358,4.776,2.954c1.746,0.607,3.38,0.899,4.951,0.899c1.553,0,3.199-0.292,4.934-0.899
			c1.745-0.596,3.339-1.576,4.77-2.954c1.448-1.378,2.645-3.199,3.591-5.441c0.946-2.242,1.413-5.056,1.413-8.407
			c0-3.34-0.467-6.166-1.413-8.408C138.776,260.551,137.568,258.729,136.108,257.352z M131.554,274.33
			c-0.082,1.168-0.286,2.254-0.643,3.281c-0.361,1.027-0.875,1.904-1.594,2.615c-0.718,0.713-1.71,1.063-2.966,1.063
			s-2.236-0.351-2.931-1.063c-0.689-0.711-1.215-1.588-1.565-2.615c-0.344-1.027-0.561-2.137-0.619-3.305
			c-0.076-1.18-0.111-2.207-0.111-3.105c0-0.935,0.035-1.985,0.111-3.176c0.058-1.168,0.263-2.266,0.619-3.293
			c0.362-1.028,0.875-1.892,1.594-2.581c0.712-0.712,1.716-1.051,3.013-1.051c1.232,0,2.195,0.362,2.902,1.074
			c0.707,0.712,1.244,1.588,1.57,2.639c0.321,1.039,0.537,2.137,0.619,3.305c0.082,1.156,0.134,2.184,0.134,3.083
			C131.688,272.123,131.636,273.174,131.554,274.33z"/>
		<path d="M347.604,261.532c-1.46-1.378-3.06-2.371-4.775-2.966c-1.717-0.607-3.375-0.888-4.975-0.888
			c-1.554,0-3.212,0.28-4.916,0.888c-1.729,0.595-3.316,1.588-4.741,2.966c-1.448,1.378-2.64,3.188-3.597,5.441
			c-0.934,2.242-1.401,5.044-1.401,8.407c0,3.34,0.468,6.154,1.401,8.396c0.957,2.254,2.148,4.075,3.597,5.441
			c1.425,1.378,3.036,2.359,4.765,2.954c1.751,0.607,3.386,0.899,4.95,0.899c1.565,0,3.2-0.292,4.939-0.899
			c1.74-0.595,3.34-1.576,4.776-2.954c1.447-1.366,2.639-3.188,3.585-5.441c0.945-2.242,1.413-5.057,1.413-8.396
			c0-3.363-0.468-6.165-1.413-8.407C350.266,264.72,349.052,262.91,347.604,261.532z M343.049,278.511
			c-0.093,1.167-0.291,2.242-0.653,3.27c-0.351,1.028-0.864,1.903-1.588,2.616c-0.724,0.724-1.705,1.074-2.966,1.074
			c-1.262,0-2.242-0.351-2.932-1.074c-0.688-0.713-1.214-1.588-1.564-2.616c-0.339-1.027-0.561-2.125-0.619-3.293
			c-0.07-1.19-0.116-2.219-0.116-3.106c0-0.934,0.046-1.984,0.116-3.176c0.059-1.168,0.257-2.266,0.619-3.293s0.876-1.892,1.6-2.592
			c0.701-0.701,1.705-1.051,3.013-1.051c1.227,0,2.195,0.362,2.896,1.074c0.701,0.724,1.238,1.588,1.565,2.639
			c0.327,1.051,0.537,2.148,0.63,3.305c0.07,1.156,0.129,2.184,0.129,3.094C343.178,276.304,343.12,277.366,343.049,278.511z"/>
		<path d="M69.497,131.514c0.945,0.899,1.985,1.559,3.135,1.938c1.133,0.409,2.219,0.583,3.24,0.583
			c1.028,0,2.103-0.187,3.241-0.583c1.144-0.38,2.184-1.04,3.129-1.938c0.946-0.894,1.734-2.09,2.359-3.573
			c0.619-1.483,0.917-3.311,0.917-5.512s-0.298-4.029-0.917-5.5c-0.636-1.483-1.413-2.68-2.371-3.579
			c-0.958-0.905-1.997-1.553-3.129-1.95c-1.126-0.38-2.212-0.584-3.27-0.584c-1.016,0-2.09,0.204-3.229,0.584
			c-1.121,0.397-2.16,1.045-3.105,1.95c-0.958,0.899-1.734,2.096-2.354,3.579c-0.625,1.471-0.934,3.311-0.934,5.512
			s0.309,4.029,0.934,5.512C67.762,129.435,68.539,130.62,69.497,131.514z M72.486,120.356c0.035-0.759,0.181-1.495,0.408-2.16
			c0.228-0.683,0.572-1.244,1.04-1.711c0.467-0.467,1.121-0.683,1.973-0.683c0.8,0,1.431,0.24,1.897,0.707
			c0.467,0.467,0.817,1.04,1.028,1.734c0.228,0.683,0.362,1.401,0.409,2.178c0.059,0.753,0.082,1.418,0.082,2.02
			c0,0.607-0.023,1.291-0.082,2.055c-0.047,0.753-0.192,1.471-0.42,2.154c-0.222,0.677-0.572,1.244-1.04,1.711
			c-0.467,0.461-1.121,0.689-1.95,0.689c-0.812,0-1.454-0.24-1.909-0.701c-0.467-0.456-0.817-1.034-1.028-1.711
			c-0.239-0.683-0.374-1.401-0.408-2.178c-0.047-0.765-0.07-1.448-0.07-2.032C72.416,121.827,72.439,121.127,72.486,120.356z"/>
		<path d="M316.893,203.771c-0.957-0.905-1.996-1.553-3.129-1.944c-1.145-0.385-2.219-0.59-3.27-0.59
			c-1.017,0-2.091,0.205-3.224,0.59c-1.144,0.391-2.172,1.039-3.129,1.944c-0.935,0.899-1.729,2.096-2.336,3.579
			c-0.63,1.471-0.934,3.311-0.934,5.511c0,2.201,0.304,4.029,0.934,5.512c0.619,1.483,1.401,2.68,2.336,3.573
			c0.957,0.899,1.985,1.553,3.141,1.938c1.145,0.397,2.23,0.584,3.235,0.584c1.027,0,2.102-0.187,3.246-0.584
			c1.144-0.385,2.184-1.039,3.129-1.938c0.946-0.893,1.729-2.09,2.359-3.573c0.618-1.483,0.91-3.311,0.91-5.512
			c0-2.201-0.292-4.04-0.91-5.511C318.622,205.868,317.85,204.682,316.893,203.771z M313.904,214.917
			c-0.047,0.753-0.187,1.472-0.421,2.155c-0.221,0.683-0.571,1.244-1.039,1.722c-0.467,0.479-1.121,0.701-1.949,0.701
			c-0.818,0-1.448-0.233-1.916-0.701c-0.467-0.467-0.793-1.039-1.027-1.722c-0.233-0.683-0.373-1.401-0.396-2.178
			c-0.047-0.765-0.07-1.448-0.07-2.032c0-0.613,0.023-1.302,0.07-2.078c0.023-0.771,0.175-1.495,0.396-2.167
			c0.234-0.683,0.584-1.243,1.051-1.71c0.468-0.467,1.121-0.683,1.962-0.683c0.806,0,1.437,0.239,1.903,0.707
			c0.467,0.467,0.817,1.039,1.027,1.734c0.223,0.683,0.362,1.401,0.409,2.178c0.059,0.753,0.082,1.425,0.082,2.02
			C313.986,213.469,313.962,214.152,313.904,214.917z"/>
		<path d="M430.36,231.014c1.145-0.385,2.184-1.045,3.129-1.938c0.946-0.899,1.74-2.096,2.359-3.573
			c0.619-1.483,0.922-3.316,0.922-5.518c0-2.195-0.303-4.04-0.922-5.511c-0.643-1.483-1.413-2.674-2.371-3.573
			c-0.957-0.911-1.996-1.553-3.129-1.95c-1.145-0.379-2.219-0.584-3.27-0.584c-1.016,0-2.091,0.205-3.223,0.584
			c-1.145,0.397-2.172,1.039-3.13,1.95c-0.935,0.899-1.729,2.09-2.335,3.573c-0.631,1.471-0.935,3.316-0.935,5.511
			c0,2.201,0.304,4.035,0.935,5.518c0.618,1.477,1.4,2.674,2.335,3.573c0.958,0.894,1.985,1.553,3.142,1.938
			c1.144,0.391,2.229,0.584,3.234,0.584C428.153,231.586,429.227,231.405,430.36,231.014z M425.164,225.905
			c-0.468-0.467-0.794-1.039-1.028-1.722c-0.233-0.683-0.373-1.396-0.396-2.178c-0.047-0.759-0.07-1.442-0.07-2.032
			c0-0.607,0.023-1.302,0.07-2.079c0.023-0.765,0.175-1.495,0.396-2.166c0.234-0.678,0.584-1.244,1.052-1.711
			c0.467-0.461,1.12-0.677,1.962-0.677c0.805,0,1.436,0.239,1.902,0.707c0.468,0.461,0.818,1.039,1.028,1.734
			c0.222,0.677,0.362,1.396,0.408,2.172c0.059,0.753,0.082,1.425,0.082,2.021c0,0.613-0.023,1.296-0.082,2.061
			c-0.046,0.753-0.187,1.466-0.42,2.149c-0.222,0.683-0.572,1.244-1.04,1.722c-0.467,0.479-1.12,0.707-1.949,0.707
			C426.261,226.6,425.63,226.373,425.164,225.905z"/>
		<path d="M374.438,237.804c-0.957-0.911-2.009-1.553-3.141-1.95c-1.133-0.38-2.219-0.584-3.259-0.584
			c-1.027,0-2.102,0.204-3.234,0.584c-1.133,0.397-2.172,1.039-3.118,1.95c-0.945,0.899-1.728,2.09-2.347,3.573
			c-0.619,1.471-0.923,3.316-0.923,5.512s0.304,4.04,0.923,5.512c0.619,1.483,1.401,2.686,2.347,3.573
			c0.946,0.899,1.985,1.564,3.13,1.938c1.145,0.397,2.242,0.584,3.246,0.584c1.028,0,2.103-0.187,3.235-0.584
			c1.155-0.374,2.184-1.039,3.141-1.938c0.934-0.888,1.729-2.09,2.358-3.573c0.607-1.472,0.911-3.316,0.911-5.512
			s-0.304-4.041-0.911-5.512C376.178,239.895,375.395,238.704,374.438,237.804z M371.449,248.944
			c-0.047,0.759-0.198,1.471-0.421,2.148c-0.233,0.689-0.584,1.25-1.051,1.729c-0.467,0.479-1.121,0.701-1.938,0.701
			s-1.459-0.234-1.915-0.701c-0.467-0.467-0.806-1.04-1.027-1.729c-0.233-0.677-0.373-1.39-0.408-2.172
			c-0.047-0.759-0.07-1.442-0.07-2.032c0-0.607,0.023-1.302,0.07-2.079c0.035-0.765,0.175-1.495,0.408-2.166
			c0.222-0.677,0.572-1.244,1.039-1.711c0.467-0.461,1.121-0.677,1.974-0.677c0.794,0,1.425,0.24,1.892,0.707
			c0.467,0.461,0.817,1.04,1.027,1.734c0.234,0.677,0.374,1.395,0.421,2.172c0.047,0.753,0.069,1.424,0.069,2.02
			C371.518,247.502,371.496,248.185,371.449,248.944z"/>
		<path d="M450.736,150.862c-1.448-1.372-3.036-2.364-4.764-2.966c-1.729-0.596-3.363-0.882-4.975-0.882
			c-1.554,0-3.2,0.286-4.904,0.882c-1.74,0.602-3.316,1.594-4.753,2.966c-1.447,1.372-2.65,3.194-3.585,5.442
			c-0.957,2.248-1.425,5.056-1.425,8.401c0,3.352,0.468,6.16,1.425,8.408c0.935,2.248,2.138,4.069,3.585,5.441
			c1.437,1.378,3.036,2.359,4.776,2.954c1.739,0.607,3.374,0.899,4.951,0.899c1.541,0,3.199-0.292,4.928-0.899
			c1.751-0.595,3.339-1.576,4.775-2.954c1.437-1.372,2.64-3.194,3.585-5.441c0.946-2.248,1.413-5.056,1.413-8.408
			c0-3.345-0.467-6.154-1.413-8.401C453.411,154.056,452.208,152.234,450.736,150.862z M446.182,167.829
			c-0.07,1.174-0.28,2.248-0.631,3.275c-0.373,1.028-0.887,1.904-1.6,2.622c-0.712,0.718-1.717,1.063-2.966,1.063
			s-2.23-0.345-2.931-1.063c-0.689-0.718-1.215-1.594-1.565-2.622c-0.351-1.027-0.56-2.125-0.618-3.298
			c-0.082-1.186-0.105-2.213-0.105-3.112c0-0.928,0.023-1.985,0.105-3.165c0.059-1.173,0.268-2.271,0.618-3.304
			c0.362-1.028,0.876-1.886,1.589-2.581c0.724-0.706,1.728-1.051,3.012-1.051c1.238,0,2.195,0.356,2.908,1.074
			c0.712,0.718,1.249,1.594,1.576,2.645c0.315,1.039,0.537,2.143,0.607,3.299c0.094,1.162,0.141,2.189,0.141,3.083
			C446.323,165.628,446.276,166.679,446.182,167.829z"/>
		<path d="M282.609,190.512c1.437,1.378,3.036,2.359,4.776,2.954c1.74,0.607,3.375,0.899,4.951,0.899
			c1.553,0,3.199-0.292,4.939-0.899c1.74-0.595,3.34-1.576,4.764-2.954c1.448-1.372,2.64-3.194,3.597-5.442
			c0.935-2.248,1.401-5.056,1.401-8.407c0-3.346-0.467-6.154-1.401-8.402c-0.957-2.248-2.16-4.069-3.62-5.441
			c-1.447-1.372-3.047-2.365-4.764-2.966c-1.729-0.596-3.375-0.882-4.975-0.882c-1.564,0-3.211,0.286-4.916,0.882
			c-1.74,0.601-3.316,1.594-4.753,2.966c-1.448,1.372-2.639,3.194-3.585,5.441c-0.945,2.248-1.412,5.056-1.412,8.402
			c0,3.351,0.467,6.16,1.412,8.407C279.97,187.318,281.161,189.14,282.609,190.512z M287.164,173.499
			c0.069-1.173,0.269-2.271,0.63-3.299c0.351-1.033,0.864-1.892,1.588-2.586c0.725-0.707,1.729-1.051,3.014-1.051
			c1.237,0,2.195,0.356,2.896,1.074c0.712,0.718,1.249,1.594,1.576,2.645c0.315,1.04,0.537,2.143,0.619,3.299
			c0.094,1.162,0.14,2.189,0.14,3.083c0,0.922-0.046,1.973-0.14,3.135c-0.082,1.173-0.28,2.248-0.643,3.275
			c-0.361,1.028-0.876,1.903-1.6,2.622c-0.712,0.718-1.704,1.062-2.966,1.062c-1.25,0-2.23-0.344-2.919-1.062
			c-0.701-0.718-1.215-1.594-1.565-2.622c-0.35-1.027-0.561-2.125-0.63-3.299c-0.07-1.185-0.105-2.213-0.105-3.112
			C287.058,175.735,287.093,174.684,287.164,173.499z"/>
		<path d="M304.854,231.189c-2.697-2.534-5.617-4.338-8.77-5.436c-3.176-1.104-6.235-1.652-9.154-1.652
			c-2.873,0-5.886,0.549-9.062,1.652c-3.177,1.098-6.096,2.902-8.735,5.436c-2.639,2.54-4.834,5.874-6.586,10.024
			c-1.751,4.146-2.616,9.295-2.616,15.46c0,6.154,0.864,11.304,2.616,15.46c1.751,4.146,3.935,7.485,6.586,10.02
			c2.663,2.521,5.582,4.344,8.781,5.441c3.188,1.098,6.236,1.646,9.108,1.646c2.861,0,5.897-0.549,9.108-1.646
			c3.199-1.098,6.119-2.92,8.77-5.441c2.65-2.534,4.846-5.874,6.586-10.02c1.74-4.157,2.604-9.306,2.604-15.46
			c0-6.165-0.863-11.315-2.604-15.46C309.747,237.063,307.551,233.729,304.854,231.189z M296.482,262.443
			c-0.152,2.137-0.549,4.157-1.191,6.025c-0.631,1.892-1.611,3.503-2.919,4.811c-1.32,1.309-3.13,1.962-5.441,1.962
			c-2.324,0-4.134-0.653-5.396-1.962c-1.284-1.308-2.241-2.919-2.872-4.811c-0.654-1.868-1.039-3.9-1.156-6.072
			c-0.129-2.172-0.198-4.076-0.198-5.722c0-1.705,0.069-3.643,0.198-5.815c0.117-2.16,0.502-4.192,1.156-6.084
			c0.631-1.88,1.611-3.468,2.907-4.747c1.319-1.279,3.165-1.927,5.547-1.927c2.254,0,4.04,0.671,5.348,1.974
			c1.308,1.302,2.266,2.931,2.873,4.84c0.618,1.927,0.992,3.947,1.145,6.084c0.163,2.148,0.233,4.04,0.233,5.687
			C296.715,258.379,296.645,260.306,296.482,262.443z"/>
		<path d="M168.512,205.424c2.266-2.154,4.151-4.998,5.634-8.536s2.224-7.94,2.224-13.201c0-5.261-0.741-9.663-2.224-13.201
			s-3.369-6.387-5.669-8.554c-2.294-2.16-4.782-3.707-7.497-4.636c-2.703-0.946-5.295-1.413-7.794-1.413
			c-2.452,0-5.021,0.467-7.725,1.413c-2.715,0.929-5.19,2.476-7.45,4.636c-2.259,2.167-4.14,5.016-5.623,8.554
			c-1.478,3.538-2.236,7.94-2.236,13.201c0,5.26,0.759,9.663,2.236,13.201c1.483,3.538,3.352,6.382,5.623,8.536
			c2.259,2.166,4.758,3.719,7.485,4.653c2.738,0.928,5.319,1.396,7.771,1.396c2.44,0,5.032-0.467,7.759-1.396
			C163.754,209.143,166.241,207.59,168.512,205.424z M157.828,197.857c-1.127,1.121-2.68,1.682-4.653,1.682
			c-1.985,0-3.515-0.561-4.618-1.682c-1.086-1.127-1.897-2.487-2.446-4.104c-0.555-1.611-0.876-3.334-0.981-5.19
			c-0.111-1.851-0.158-3.48-0.158-4.875c0-1.46,0.047-3.112,0.158-4.963c0.105-1.845,0.426-3.579,0.981-5.19
			c0.549-1.611,1.372-2.966,2.499-4.064c1.121-1.092,2.686-1.641,4.723-1.641c1.921,0,3.439,0.561,4.566,1.688
			c1.121,1.121,1.938,2.499,2.464,4.134c0.514,1.641,0.835,3.375,0.969,5.19c0.129,1.822,0.199,3.445,0.199,4.846
			c0,1.459-0.07,3.094-0.199,4.91c-0.134,1.821-0.467,3.544-1.016,5.155C159.772,195.37,158.937,196.73,157.828,197.857z"/>
		<path d="M432.309,132.354c2.733-0.935,5.221-2.487,7.474-4.653c2.266-2.155,4.157-4.998,5.641-8.536
			c1.482-3.538,2.229-7.94,2.229-13.201c0-5.26-0.747-9.663-2.229-13.201c-1.483-3.538-3.375-6.388-5.663-8.554
			c-2.301-2.16-4.788-3.708-7.497-4.636c-2.709-0.946-5.302-1.413-7.801-1.413c-2.452,0-5.021,0.467-7.729,1.413
			c-2.709,0.928-5.186,2.476-7.45,4.636c-2.254,2.166-4.134,5.016-5.617,8.554c-1.482,3.538-2.23,7.94-2.23,13.201
			c0,5.261,0.748,9.663,2.23,13.201c1.483,3.538,3.352,6.381,5.617,8.536c2.265,2.166,4.764,3.719,7.496,4.653
			c2.732,0.928,5.313,1.395,7.766,1.395C426.985,133.75,429.577,133.283,432.309,132.354z M419.838,120.134
			c-1.074-1.127-1.892-2.487-2.44-4.104c-0.549-1.611-0.876-3.334-0.98-5.19c-0.105-1.851-0.152-3.48-0.152-4.875
			c0-1.459,0.047-3.112,0.152-4.962c0.104-1.845,0.432-3.579,0.98-5.191c0.549-1.611,1.366-2.966,2.499-4.063
			c1.121-1.092,2.686-1.641,4.729-1.641c1.915,0,3.433,0.561,4.554,1.688c1.121,1.121,1.938,2.499,2.476,4.134
			c0.514,1.641,0.829,3.375,0.958,5.19c0.14,1.821,0.21,3.445,0.21,4.846c0,1.46-0.07,3.095-0.21,4.91
			c-0.129,1.822-0.468,3.544-1.005,5.156c-0.549,1.617-1.378,2.978-2.499,4.104c-1.121,1.121-2.674,1.681-4.647,1.681
			C422.477,121.815,420.948,121.255,419.838,120.134z"/>
		<path d="M372.033,182.63c2.452,0,5.044-0.461,7.776-1.396c2.721-0.934,5.22-2.487,7.474-4.653
			c2.266-2.148,4.157-4.998,5.628-8.536c1.495-3.538,2.23-7.94,2.23-13.201c0-5.26-0.735-9.663-2.23-13.201
			c-1.471-3.538-3.362-6.388-5.651-8.548c-2.312-2.166-4.788-3.708-7.509-4.642c-2.697-0.946-5.289-1.413-7.788-1.413
			c-2.452,0-5.021,0.467-7.73,1.413c-2.709,0.934-5.185,2.476-7.45,4.642c-2.265,2.16-4.133,5.01-5.616,8.548
			s-2.23,7.94-2.23,13.201c0,5.261,0.747,9.663,2.23,13.201s3.352,6.387,5.616,8.536c2.266,2.167,4.765,3.719,7.485,4.653
			C366.988,182.169,369.592,182.63,372.033,182.63z M363.765,154.856c0-1.459,0.047-3.112,0.163-4.963
			c0.094-1.839,0.421-3.573,0.981-5.19c0.537-1.611,1.366-2.966,2.499-4.063c1.121-1.086,2.686-1.641,4.717-1.641
			c1.927,0,3.445,0.566,4.566,1.688c1.133,1.126,1.938,2.499,2.464,4.139c0.514,1.635,0.841,3.369,0.969,5.191
			c0.129,1.815,0.198,3.438,0.198,4.84c0,1.46-0.069,3.095-0.198,4.916c-0.128,1.816-0.467,3.538-1.016,5.15
			c-0.537,1.617-1.378,2.978-2.487,4.104c-1.133,1.121-2.674,1.687-4.659,1.687s-3.503-0.566-4.601-1.687
			c-1.098-1.127-1.915-2.487-2.452-4.104c-0.561-1.612-0.888-3.334-0.981-5.185C363.812,157.88,363.765,156.257,363.765,154.856z"/>
		<path d="M385.636,199.036c-1.763,2.826-4.04,5.085-6.808,6.744c-2.768,1.676-5.885,2.873-9.318,3.591
			c-3.457,0.73-6.982,1.027-10.626,0.934v20.668h23.378v57.544h29.846v-99.868h-23.529
			C388.38,192.748,387.4,196.216,385.636,199.036z"/>
		<path d="M141.836,142.625h17.738V83.246h-13.995c-0.117,2.435-0.701,4.507-1.746,6.177c-1.051,1.688-2.399,3.024-4.052,4.017
			s-3.491,1.71-5.547,2.131c-2.043,0.432-4.151,0.625-6.3,0.561v12.278h13.902V142.625z"/>
		<path d="M324.67,164.887h15.904v-53.184h-12.541c-0.105,2.201-0.631,4.041-1.565,5.535c-0.935,1.506-2.148,2.715-3.62,3.597
			c-1.482,0.887-3.129,1.535-4.975,1.915c-1.821,0.374-3.713,0.549-5.651,0.49v11.012h12.448V164.887z"/>
		<path d="M221.345,263.471c-0.49,0.794-1.139,1.424-1.903,1.892c-0.776,0.467-1.652,0.794-2.622,1.004
			c-0.952,0.187-1.944,0.28-2.966,0.257v5.769h6.545v16.113h8.355v-27.955h-6.586C222.11,261.696,221.847,262.677,221.345,263.471z"
			/>
		<path d="M56.727,224.207h8.355v-27.955h-6.574c-0.059,1.15-0.321,2.131-0.823,2.919c-0.491,0.789-1.139,1.425-1.903,1.886
			c-0.777,0.467-1.652,0.794-2.622,1.004c-0.951,0.193-1.944,0.28-2.96,0.257v5.762h6.539v16.126H56.727z"/>
		<path d="M189.204,185.812c-0.491,0.788-1.139,1.425-1.903,1.892c-0.777,0.467-1.652,0.788-2.622,1.004
			c-0.952,0.193-1.944,0.274-2.966,0.251v5.763h6.545v16.12h8.355v-27.955h-6.586C189.98,184.043,189.706,185.024,189.204,185.812z"
			/>
		<path d="M295.127,110.641h8.36V82.68h-6.586c-0.059,1.15-0.327,2.131-0.817,2.919s-1.145,1.425-1.915,1.886
			c-0.771,0.467-1.646,0.794-2.615,1.01c-0.958,0.187-1.938,0.274-2.966,0.251v5.763h6.539V110.641z"/>
		<path d="M375.057,113.887h8.77V84.513h-6.913c-0.047,1.22-0.339,2.236-0.864,3.06c-0.514,0.835-1.191,1.495-1.997,1.985
			c-0.817,0.502-1.739,0.847-2.743,1.062c-1.017,0.216-2.056,0.298-3.13,0.263v6.09h6.878V113.887z"/>
		<path d="M432.1,253.008c-0.491,0.794-1.145,1.425-1.916,1.892c-0.771,0.467-1.646,0.794-2.615,1.004
			c-0.957,0.187-1.938,0.28-2.966,0.257v5.769h6.539v16.114h8.36v-27.954h-6.586C432.858,251.233,432.59,252.214,432.1,253.008z"/>
		<path d="M53.738,125.587h8.355V97.626h-6.574c-0.059,1.15-0.333,2.131-0.835,2.931c-0.491,0.788-1.127,1.424-1.903,1.892
			c-0.777,0.461-1.652,0.788-2.622,1.004c-0.951,0.187-1.944,0.274-2.966,0.251v5.763h6.545V125.587z"/>
		<path d="M170.287,245.038c-0.946,1.506-2.166,2.715-3.637,3.603c-1.483,0.888-3.136,1.53-4.975,1.915
			c-1.827,0.374-3.719,0.537-5.657,0.491v11h12.459v30.652h15.893v-53.183H171.84C171.741,241.693,171.215,243.543,170.287,245.038z
			"/>
		<path d="M239.795,193.069c-0.946,1.506-2.167,2.715-3.638,3.603c-1.483,0.881-3.135,1.53-4.975,1.909
			c-1.827,0.374-3.719,0.555-5.657,0.49v11.018h12.459v30.646h15.898v-53.189h-12.535
			C241.249,189.735,240.723,191.575,239.795,193.069z"/>
	</g>
</g>
<g>
</g>
<g>
</g>
<g>
</g>
<g>
</g>
<g>
</g>
<g>
</g>
<g>
</g>
<g>
</g>
<g>
</g>
<g>
</g>
<g>
</g>
<g>
</g>
<g>
</g>
<g>
</g>
<g>
</g>
</svg>
