<?xml version="1.0" encoding="iso-8859-1"?>
<!-- Generator: Adobe Illustrator 19.0.0, SVG Export Plug-In . SVG Version: 6.00 Build 0)  -->
<svg version="1.1" id="Layer_1" xmlns="http://www.w3.org/2000/svg" xmlns:xlink="http://www.w3.org/1999/xlink" x="0px" y="0px"
	 viewBox="0 0 512 512" style="enable-background:new 0 0 512 512;" xml:space="preserve">
<path style="fill:#39A3DB;" d="M471.201,512H40.799C18.302,512,0,493.698,0,471.201V40.799C0,18.302,18.302,0,40.799,0h430.402
	C493.698,0,512,18.302,512,40.799v430.402C512,493.698,493.698,512,471.201,512z"/>
<path style="fill:#2275AA;" d="M471.201,0H256v512h215.201C493.698,512,512,493.698,512,471.201V40.799
	C512,18.302,493.698,0,471.201,0z"/>
<path style="fill:#FFC72D;" d="M382.457,402.549H129.544c-8.251,0-15.69-4.971-18.846-12.595c-3.156-7.624-1.41-16.398,4.425-22.233
	l252.912-252.808c7.967-7.964,20.884-7.963,28.849,0.005c7.965,7.968,7.963,20.884-0.005,28.849L178.807,361.75h203.65
	c11.266,0,20.399,9.133,20.399,20.399S393.723,402.549,382.457,402.549z"/>
<g>
	<path style="fill:#F59D00;" d="M396.878,143.769c7.968-7.965,7.971-20.881,0.005-28.849c-7.965-7.969-20.881-7.969-28.849-0.005
		L256,226.904v57.687L396.878,143.769z"/>
	<path style="fill:#F59D00;" d="M382.457,361.75H256.001v40.799h126.456c11.266,0,20.399-9.133,20.399-20.399
		S393.723,361.75,382.457,361.75z"/>
</g>
<g>
	<circle style="fill:#FFE49C;" cx="129.55" cy="129.346" r="42.363"/>
	<circle style="fill:#FFE49C;" cx="255.999" cy="129.346" r="42.363"/>
	<circle style="fill:#FFE49C;" cx="129.55" cy="255.686" r="42.363"/>
	<circle style="fill:#FFE49C;" cx="255.999" cy="255.686" r="42.363"/>
	<circle style="fill:#FFE49C;" cx="129.55" cy="382.148" r="42.363"/>
	<circle style="fill:#FFE49C;" cx="255.999" cy="382.148" r="42.363"/>
</g>
<g>
	<path style="fill:#FFC72D;" d="M256,86.98v84.725c23.397,0,42.363-18.966,42.363-42.363S279.397,86.98,256,86.98z"/>
	<circle style="fill:#FFC72D;" cx="382.461" cy="129.346" r="42.363"/>
	<path style="fill:#FFC72D;" d="M256,213.331v84.725c23.397,0,42.363-18.966,42.363-42.363
		C298.363,232.297,279.397,213.331,256,213.331z"/>
	<circle style="fill:#FFC72D;" cx="382.461" cy="255.686" r="42.363"/>
	<path style="fill:#FFC72D;" d="M256,339.787v84.725c23.397,0,42.363-18.966,42.363-42.363
		C298.363,358.753,279.397,339.787,256,339.787z"/>
	<circle style="fill:#FFC72D;" cx="382.461" cy="382.148" r="42.363"/>
</g>
<g>
</g>
<g>
</g>
<g>
</g>
<g>
</g>
<g>
</g>
<g>
</g>
<g>
</g>
<g>
</g>
<g>
</g>
<g>
</g>
<g>
</g>
<g>
</g>
<g>
</g>
<g>
</g>
<g>
</g>
</svg>
