<?xml version="1.0" encoding="iso-8859-1"?>
<!-- Generator: Adobe Illustrator 16.0.0, SVG Export Plug-In . SVG Version: 6.00 Build 0)  -->
<!DOCTYPE svg PUBLIC "-//W3C//DTD SVG 1.1//EN" "http://www.w3.org/Graphics/SVG/1.1/DTD/svg11.dtd">
<svg version="1.1" id="Capa_1" xmlns="http://www.w3.org/2000/svg" xmlns:xlink="http://www.w3.org/1999/xlink" x="0px" y="0px"
	 width="38.598px" height="38.598px" viewBox="0 0 38.598 38.598" style="enable-background:new 0 0 38.598 38.598;"
	 xml:space="preserve">
<g>
	<path d="M37.162,14.764h-1.448v-3.025c0-1.936-1.567-3.506-3.505-3.506H3.506C1.569,8.233,0,9.803,0,11.739v15.117
		c0,1.938,1.57,3.508,3.506,3.508h28.702c1.937,0,3.505-1.57,3.505-3.508v-3.023h1.447c0.793,0,1.438-0.643,1.438-1.438V16.2
		C38.599,15.405,37.955,14.764,37.162,14.764z M12.71,17.224l-6.002,2.527l6.002,2.543v1.844l-8.447-3.582v-0.795v-0.797
		l8.447-3.584V17.224z M16.381,26.052h-1.918l3.792-12.588h1.918L16.381,26.052z M30.373,19.761v0.795l-8.447,3.582v-1.844
		l6.002-2.543l-6.002-2.527v-1.845l8.447,3.584V19.761z"/>
</g>
<g>
</g>
<g>
</g>
<g>
</g>
<g>
</g>
<g>
</g>
<g>
</g>
<g>
</g>
<g>
</g>
<g>
</g>
<g>
</g>
<g>
</g>
<g>
</g>
<g>
</g>
<g>
</g>
<g>
</g>
</svg>
