<?xml version="1.0" encoding="iso-8859-1"?>
<!-- Generator: Adobe Illustrator 19.0.0, SVG Export Plug-In . SVG Version: 6.00 Build 0)  -->
<svg version="1.1" id="Layer_1" xmlns="http://www.w3.org/2000/svg" xmlns:xlink="http://www.w3.org/1999/xlink" x="0px" y="0px"
	 viewBox="0 0 512 512" style="enable-background:new 0 0 512 512;" xml:space="preserve">
<rect x="10.199" y="80.043" style="fill:#FFE6B8;" width="491.602" height="322.58"/>
<rect x="200.241" y="402.624" style="fill:#CCCCCC;" width="111.508" height="73.169"/>
<path style="fill:#BCC987;" d="M379.1,294.807l23.189,40.157c3.982,6.896,13.936,6.896,17.918,0l23.189-40.157
	c3.983-6.897-0.994-15.518-8.959-15.518h-46.378C380.096,279.289,375.119,287.91,379.1,294.807z"/>
<g>
	<path style="fill:#4D3D36;" d="M501.801,69.845h-80.37c-0.342-24.232-20.149-43.843-44.46-43.843
		c-24.313,0-44.12,19.611-44.461,43.843H10.199C4.566,69.845,0,74.411,0,80.044v322.581c0,5.633,4.566,10.199,10.199,10.199h179.845
		V465.6h-36.179c-5.633,0-10.199,4.566-10.199,10.199c0,5.633,4.566,10.199,10.199,10.199h204.27
		c5.632,0,10.199-4.566,10.199-10.199c0-5.633-4.567-10.199-10.199-10.199h-36.179v-52.775h179.845
		c5.632,0,10.199-4.566,10.199-10.199V80.044C512,74.411,507.433,69.845,501.801,69.845z M376.971,46.4
		c13.064,0,23.723,10.46,24.062,23.445h-48.124C353.246,56.861,363.907,46.4,376.971,46.4z M301.558,465.6h-91.116v-52.775h91.116
		V465.6z M491.602,392.427H20.398V90.244h380.651v118.324c0,5.633,4.567,10.199,10.199,10.199c5.632,0,10.199-4.566,10.199-10.199
		V90.244h70.154V392.427z"/>
	<path style="fill:#4D3D36;" d="M411.248,256.504c5.632,0,10.199-4.566,10.199-10.199v-5.1c0-5.633-4.567-10.199-10.199-10.199
		c-5.632,0-10.199,4.566-10.199,10.199v5.1C401.049,251.938,405.615,256.504,411.248,256.504z"/>
	<path style="fill:#4D3D36;" d="M370.268,279.361c-3.715,6.433-3.715,14.113,0,20.545l0,0l23.188,40.158
		c3.715,6.432,10.365,10.271,17.792,10.271c7.426,0,14.078-3.84,17.791-10.271l23.189-40.158c3.715-6.433,3.715-14.113,0-20.545
		c-3.714-6.433-10.364-10.273-17.791-10.273h-46.377C380.632,269.089,373.981,272.93,370.268,279.361z M387.898,289.652
		c0.003-0.047,0.058-0.142,0.161-0.165l46.442-0.003c0.039,0.027,0.094,0.121,0.062,0.222l-23.219,40.215
		c-0.041,0.02-0.15,0.021-0.223-0.057l-23.188-40.158L387.898,289.652z"/>
	<path style="fill:#4D3D36;" d="M274.856,152.882c-3.381-4.505-9.774-5.417-14.279-2.036s-5.418,9.774-2.036,14.28l59.16,78.835
		l-59.16,78.835c-3.381,4.505-2.469,10.899,2.036,14.28c1.835,1.377,3.983,2.042,6.113,2.042c3.1,0,6.162-1.408,8.165-4.078
		l63.755-84.957c2.722-3.628,2.722-8.616,0-12.244L274.856,152.882z"/>
	<path style="fill:#4D3D36;" d="M133.112,150.845c-4.506-3.38-10.898-2.469-14.28,2.036l-63.754,84.957
		c-2.721,3.628-2.721,8.616,0,12.244l63.754,84.957c2.004,2.67,5.066,4.078,8.165,4.078c2.13,0,4.279-0.665,6.114-2.042
		c4.505-3.381,5.417-9.774,2.036-14.279l-59.16-78.836l59.16-78.836C138.529,160.62,137.617,154.226,133.112,150.845z"/>
	<path style="fill:#4D3D36;" d="M219.02,149.066c-5.487-1.27-10.965,2.152-12.233,7.641l-39.258,169.915
		c-1.269,5.488,2.153,10.965,7.641,12.233c0.772,0.178,1.544,0.264,2.305,0.264c4.642,0,8.839-3.189,9.928-7.905l39.258-169.915
		C227.93,155.811,224.508,150.334,219.02,149.066z"/>
	<path style="fill:#4D3D36;" d="M114.231,234.066c-5.633,0-10.199,4.566-10.199,10.199s4.566,10.199,10.199,10.199h2.04
		c5.633,0,10.199-4.566,10.199-10.199s-4.566-10.199-10.199-10.199H114.231z"/>
	<path style="fill:#4D3D36;" d="M152.988,234.066h-2.04c-5.633,0-10.199,4.566-10.199,10.199s4.566,10.199,10.199,10.199h2.04
		c5.633,0,10.199-4.566,10.199-10.199S158.621,234.066,152.988,234.066z"/>
	<path style="fill:#4D3D36;" d="M241.721,234.066h-2.04c-5.633,0-10.199,4.566-10.199,10.199s4.566,10.199,10.199,10.199h2.04
		c5.633,0,10.199-4.566,10.199-10.199S247.354,234.066,241.721,234.066z"/>
	<path style="fill:#4D3D36;" d="M278.438,254.464c5.632,0,10.199-4.566,10.199-10.199s-4.567-10.199-10.199-10.199h-2.04
		c-5.632,0-10.199,4.566-10.199,10.199s4.567,10.199,10.199,10.199H278.438z"/>
</g>
<g>
</g>
<g>
</g>
<g>
</g>
<g>
</g>
<g>
</g>
<g>
</g>
<g>
</g>
<g>
</g>
<g>
</g>
<g>
</g>
<g>
</g>
<g>
</g>
<g>
</g>
<g>
</g>
<g>
</g>
</svg>
