<?xml version="1.0" encoding="iso-8859-1"?>
<!-- Generator: Adobe Illustrator 19.0.0, SVG Export Plug-In . SVG Version: 6.00 Build 0)  -->
<svg version="1.1" id="Layer_1" xmlns="http://www.w3.org/2000/svg" xmlns:xlink="http://www.w3.org/1999/xlink" x="0px" y="0px"
	 viewBox="0 0 508 508" style="enable-background:new 0 0 508 508;" xml:space="preserve">
<path style="fill:#FF7058;" d="M508,254c0,140.4-113.6,254-254,254S0,394.4,0,254S113.6,0,254,0c110.8,0,204.8,70.8,239.6,169.6
	c7.6,21.2,12,43.6,13.6,66.8C508,242.4,508,248,508,254z"/>
<polygon style="fill:#324A5E;" points="266,354.4 276.8,386.4 231.2,386.4 242,354.4 224,354.4 191.6,448.8 211.6,448.8 
	227.2,401.6 280.8,401.6 296.8,448.8 317.6,448.8 285.2,354.4 "/>
<path style="fill:#FFFFFF;" d="M70.8,148.8v194.4c0,9.2,7.6,16.8,16.8,16.8h336.8c9.2,0,16.8-7.6,16.8-16.8V148.8H70.8z"/>
<path style="fill:#324A5E;" d="M446,153.2H62c-2.8,0-5.2-2.4-5.2-5.2v-18c0-2.8,2.4-5.2,5.2-5.2h384c2.8,0,5.2,2.4,5.2,5.2v18
	C451.6,150.8,449.2,153.2,446,153.2z"/>
<path style="fill:#FF7058;" d="M383.2,209.2c0-1.6-0.8-2.8-2-3.6L356,185.2c-2.4-2-6-1.6-7.6,0.8c-2,2.4-1.6,6,0.8,7.6L362,204
	c-137.6,0.4-230.4,104.8-231.2,106c-2,2.4-1.6,5.6,0.4,7.6c0.8,0.8,2,1.2,3.6,1.2s3.2-0.4,4.4-2c0.8-1.2,92.4-104,227.6-102
	l-13.6,16.8c-2,2.4-1.6,6,0.8,7.6c0.8,0.8,2,1.2,3.2,1.2c1.6,0,3.2-0.8,4.4-2l20.4-25.2C382.8,212,383.2,210.4,383.2,209.2z"/>
<g>
	<path style="fill:#4CDBC4;" d="M300,276h-13.6v-13.6c0-3.2-2.4-5.6-5.6-5.6s-5.6,2.4-5.6,5.6V276h-13.6c-3.2,0-5.6,2.4-5.6,5.6
		s2.4,5.6,5.6,5.6h13.6v13.6c0,3.2,2.4,5.6,5.6,5.6s5.6-2.4,5.6-5.6v-13.6H300c3.2,0,5.6-2.4,5.6-5.6S303.2,276,300,276z"/>
	<path style="fill:#4CDBC4;" d="M186.8,202.8h-13.6v-13.6c0-3.2-2.4-5.6-5.6-5.6c-3.2,0-5.6,2.4-5.6,5.6v13.6h-13.6
		c-3.2,0-5.6,2.4-5.6,5.6c0,3.2,2.4,5.6,5.6,5.6H162v13.6c0,3.2,2.4,5.6,5.6,5.6c3.2,0,5.6-2.4,5.6-5.6V214h13.6
		c3.2,0,5.6-2.4,5.6-5.6C192.4,205.6,190,202.8,186.8,202.8z"/>
</g>
<g>
	<path style="fill:#FFD05B;" d="M348.4,296.4c-10.8,0-19.6-8.8-19.6-19.6c0-10.8,8.8-19.6,19.6-19.6S368,266,368,276.8
		S359.2,296.4,348.4,296.4z M348.4,268c-4.8,0-8.8,4-8.8,8.8s4,8.8,8.8,8.8s8.8-4,8.8-8.8C356.8,272,353.2,268,348.4,268z"/>
	<path style="fill:#FFD05B;" d="M213.2,324.8c-10.8,0-19.6-8.8-19.6-19.6c0-10.8,8.8-19.6,19.6-19.6s19.6,8.8,19.6,19.6
		S224,324.8,213.2,324.8z M213.2,296.4c-4.8,0-8.8,4-8.8,8.8s4,8.8,8.8,8.8s8.8-4,8.8-8.8S218,296.4,213.2,296.4z"/>
	<path style="fill:#FFD05B;" d="M233.6,214c-10.8,0-19.6-8.8-19.6-19.6s8.8-19.6,19.6-19.6s19.6,8.8,19.6,19.6
		C253.6,205.2,244.4,214,233.6,214z M233.6,185.6c-4.8,0-8.8,4-8.8,8.8s4,8.8,8.8,8.8s8.8-4,8.8-8.8
		C242.4,189.6,238.4,185.6,233.6,185.6z"/>
</g>
<g>
</g>
<g>
</g>
<g>
</g>
<g>
</g>
<g>
</g>
<g>
</g>
<g>
</g>
<g>
</g>
<g>
</g>
<g>
</g>
<g>
</g>
<g>
</g>
<g>
</g>
<g>
</g>
<g>
</g>
</svg>
